<svg xmlns="http://www.w3.org/2000/svg" viewBox="0 0 445.64 318.75"><defs><style>.cls-1,.cls-3{fill:#22aaa1;}.cls-2{fill:#fff;}.cls-3{stroke:#22aaa1;stroke-linecap:round;stroke-linejoin:round;stroke-width:4px;}</style></defs><g id="Layer_2" data-name="Layer 2"><g id="Layer_3" data-name="Layer 3"><path class="cls-1" d="M30.05,163.36s4.3-9.93,10.74-12.61,5.63-1.08,8.05-1.34,26.56-29,47.22-32.74c9.81-2.16,32.61,36.7,55.82,57.42,8.54,7.63,18.66,12.42,26,12.35-35.15,10.46-70.84.8-76.2-5.91,8.85-4.29,9.39-4.56,11.8-7.78S103,138.94,93.65,137.33c-10.74,4.56-36.5,16.49-36.5,16.49S51.25,163.63,30.05,163.36Z"/><path class="cls-1" d="M189.44,148.73c-7-10.19-43.74-2.41-34.88,22.28,4.56,11.27,24.42,3.48,29.25,0S196.42,158.93,189.44,148.73Z"/><path class="cls-1" d="M4.7,186.7s33.54-16.9,63.86-13.95,29.25,19.32,65.74,21.47,68.16-13.15,80.23-14,25.09,6.68,25.09,6.68-5.43-3.19-24.15-2.18-41.26,16.34-72.65,16.7-53.83-16.36-75.3-19S4.7,186.7,4.7,186.7Z"/><path class="cls-1" d="M149.73,214.85c34.61.54,43.47-14.66,62.79-16.22,13.95.32,24.37,14.08,47.22,18.73-20.72.06-24.54-10.89-47.89-11.47S189.91,218.77,149.73,214.85Z"/><path class="cls-1" d="M0,208.45c34.61.54,43.47-14.66,62.79-16.22,13.95.32,24.37,14.08,47.23,18.73-20.73.06-24.55-10.89-47.9-11.47S40.18,212.37,0,208.45Z"/><path class="cls-1" d="M294.18,41.11l9.44,22.21h28.6l9.45-22.21-17.62-8.43a41.88,41.88,0,0,0-6.13-1A48.36,48.36,0,0,0,311,32.94Z"/><path class="cls-1" d="M314.09,16.09l-4.59,4.08s2.8,2.3,8.42,2.55,7.92-1.78,7.92-1.78l-3.58-4.85h5.11V11.23l-6.07.64,4.79-4.72s0-2.3-6.64-2.55c4.66-1.66,1.34-4.6-1.53-4.6-1.28,0-7,2.11-1.53,4.53-2.43-.38-7,1.47-6.89,2.3l4.86,5-5.44-.44v4.72Z"/><rect class="cls-1" x="309.39" y="23.87" width="16.79" height="6.45" rx="2.07"/><path class="cls-1" d="M334.52,66v1.63a1,1,0,0,1-1,1H331.3v4.18H304.36V68.56h-1.94a1,1,0,0,1-1-1V66a1,1,0,0,1,1-1h31.13A1,1,0,0,1,334.52,66Z"/><rect class="cls-1" x="297.3" y="74.81" width="41.04" height="3.86" rx="1.93"/><rect class="cls-1" x="293.6" y="80.9" width="48.64" height="9.19" rx="3"/><path class="cls-1" d="M301.46,92.31h33.06s-14.56,40.09,13.53,72c-19.15,5.37-22.3,5.49-30.14,5.56s-14.8.06-30.63-5.56C314.86,134.44,301.46,92.31,301.46,92.31Z"/><path class="cls-1" d="M287.28,167.43s17.58,5.44,30.63,5.18,30.14-5.18,30.14-5.18v7.8s12.25,8.68,12.25,12.25-.32,11.75-42.16,11.75-42.63-7.15-42.63-12.26,11.77-11.49,11.77-11.49Z"/><path class="cls-1" d="M279.15,197.42s8.51,5.36,39.83,4.68,37.45-4.68,37.45-4.68c2.3,0,22.7,16-38.14,15.4S275.41,197.93,279.15,197.42Z"/><path class="cls-2" d="M338.39,43.12c-1,3-2,6-3,8.93-.5,1.49-.95,3-1.56,4.44a39.72,39.72,0,0,1-2.08,4.25l-.1,0a36.94,36.94,0,0,1,1.24-4.56c.49-1.49,1.15-2.92,1.75-4.37q1.78-4.37,3.65-8.69Z"/><path class="cls-2" d="M345.8,171.21a21.87,21.87,0,0,1,.34,3,21.46,21.46,0,0,1,0,3l-.18-.34a41,41,0,0,0,3.35,2.72,31.86,31.86,0,0,1,3.46,2.56,15.6,15.6,0,0,1,2.94,3.23,8.08,8.08,0,0,1,1,2,3.59,3.59,0,0,1,.08,2.22l-.1,0a6.48,6.48,0,0,0-1.74-3.63c-.88-1.07-1.83-2.09-2.81-3.1s-2-2-3-3a17.49,17.49,0,0,0-3.57-2.32l-.15-.08,0-.25a21.46,21.46,0,0,1,0-3,21.87,21.87,0,0,1,.34-3Z"/><path class="cls-2" d="M339.59,82.65c.14,1,.26,2,.35,3a6.79,6.79,0,0,1,.1,1.49,4.2,4.2,0,0,1-.45,1.48h-.1a4,4,0,0,1-.45-1.48,5.76,5.76,0,0,1,.1-1.49c.09-1,.2-2,.35-3Z"/><path class="cls-2" d="M331.76,94.37a98.91,98.91,0,0,0-2.88,18.26,87.24,87.24,0,0,0,.64,18.42,70.1,70.1,0,0,0,2,9,60.78,60.78,0,0,0,3.33,8.55,48.52,48.52,0,0,0,4.74,7.84l1.41,1.82c.47.61,1,1.15,1.52,1.73,1,1.19,2.16,2.19,3.24,3.29l-.06.08a42.57,42.57,0,0,1-6.66-6.49A45.51,45.51,0,0,1,334,149a51.47,51.47,0,0,1-3.38-8.71,69.5,69.5,0,0,1-1.86-9.14,87.36,87.36,0,0,1-.34-18.57,98.92,98.92,0,0,1,3.27-18.25Z"/><path id="path1894" class="cls-1" d="M105.43,237.52c0-11.32-15.71-11.32-15.71,0v81.23h16.06V295.3H228v23.28h15.71V248.44c0-11.94-15.88-11.94-15.88,0v28H105.43Z"/><path class="cls-1" d="M134.19,272.47a7.06,7.06,0,0,1-5.16-2.23L111,250.93a7.06,7.06,0,0,1,10.3-9.65l18.09,19.31a7.06,7.06,0,0,1-5.15,11.88Z"/><path class="cls-1" d="M217.93,272.75H151.19a7.36,7.36,0,0,1,0-14.71h66.74a7.36,7.36,0,0,1,0,14.71Z"/><g id="layer1"><path class="cls-3" d="M364.47,249.28c-19.73.69-31-15.94-47.9-2.75-19.13-13.6-19.13,3.92-46.85,3.87,1.32,20.14.81,39.82.62,59.57a514.94,514.94,0,0,1,95.77,0C365.38,289.85,363.94,270.13,364.47,249.28Zm-49.85,50c-12-8.65-28.09,5.28-42,6l.08-52.16c21.94-1.43,29.72-17.74,42.26-3Zm4.46-.6-.37-49.18c12.54-14.69,20.32,1.62,42.26,3l.08,52.16C347.17,304,331.07,290,319.08,298.67Z"/></g><path class="cls-1" d="M254.47,65.36h-31l25-33.8a3.3,3.3,0,0,0-5.3-3.92L218.83,60.53l-7-27.92a3.3,3.3,0,0,0-6.4,1.59l7.76,31.16H171.08a6.3,6.3,0,0,0-6.3,6.29V117a6.31,6.31,0,0,0,6.3,6.3h83.39a6.31,6.31,0,0,0,6.3-6.3V71.65A6.3,6.3,0,0,0,254.47,65.36Zm-1.2,7.58a3.8,3.8,0,1,1-3.8,3.8A3.8,3.8,0,0,1,253.27,72.94Zm0,10.43a3.8,3.8,0,1,1-3.8,3.8A3.8,3.8,0,0,1,253.27,83.37Zm-8.41,33.35H171.37V71.94h73.49Zm11.37-3.6H250.3a1.47,1.47,0,0,1,0-2.93h5.93a1.47,1.47,0,1,1,0,2.93Zm0-3.78H250.3a1.47,1.47,0,0,1,0-2.93h5.93a1.47,1.47,0,1,1,0,2.93Zm0-3.77H250.3a1.47,1.47,0,0,1,0-2.93h5.93a1.47,1.47,0,1,1,0,2.93Zm0-3.78H250.3a1.47,1.47,0,0,1,0-2.93h5.93a1.47,1.47,0,1,1,0,2.93Z"/><path class="cls-1" d="M445.64,151.44,431.78,254.69s-7.5,4-15.28,4S400,254.85,400,254.85L378.92,151.44h8.81a12.31,12.31,0,0,1,.64-1.82l-6.14-21.35-26.2-8a2.58,2.58,0,0,1,1.52-4.94l27.52,8.44a2.6,2.6,0,0,1,1.74,1.76l5.39,18.74c4.11-3.91,10.46-6.55,17.69-7a3.34,3.34,0,0,1-1.08-2.48,3.41,3.41,0,0,1,6.81,0,3.34,3.34,0,0,1-1.08,2.48c11.14.73,20.14,6.61,22.16,14.23Z"/></g></g></svg>